<svg id="图层_1" data-name="图层 1" xmlns="http://www.w3.org/2000/svg" viewBox="0 0 700.25 65.73"><defs><style>.cls-1{fill:#231815;}</style></defs><title>moondevelop</title><path class="cls-1" d="M135,27.85,108.38,1.18,76.51,33.07l31.57,31.58L134.73,38l26.68,26.67L193,33.07,161.41,1.48ZM108.38,54.51,86.93,33.07l21.15-21.16,21.45,21.45Zm53-.3L140,32.76l21.15-21.14,21.45,21.45Z"/><polygon class="cls-1" points="32.06 25.47 7.39 1.09 0 1.09 0.02 64.58 7.39 64.58 7.39 11.8 31.48 35.9 56.55 10.8 56.55 64.65 63.91 64.65 63.91 1.09 56.48 1.09 32.06 25.47"/><path class="cls-1" d="M312.63,10.26a32.59,32.59,0,0,0-10.71-6.72,37,37,0,0,0-13.66-2.45H262.41l0,52.33L213.3,1.09h-7.37V64.58h7.37V11.8l49.16,52.85h25.8a36.8,36.8,0,0,0,13.66-2.45,32.59,32.59,0,0,0,10.71-6.72,29.59,29.59,0,0,0,6.95-10A31.61,31.61,0,0,0,322,33v-.19a31.68,31.68,0,0,0-2.45-12.48A29.59,29.59,0,0,0,312.63,10.26ZM320,33.05a29.34,29.34,0,0,1-2.31,11.66,28.78,28.78,0,0,1-6.49,9.45,30.29,30.29,0,0,1-10,6.35,34.75,34.75,0,0,1-12.85,2.31h-18.5V2.91h18.32a35,35,0,0,1,12.94,2.31,30.47,30.47,0,0,1,10.07,6.4,28.75,28.75,0,0,1,6.54,9.53A29.74,29.74,0,0,1,320,32.87Z"/><polygon class="cls-1" points="340.1 33.59 378.59 33.59 378.59 31.78 340.1 31.78 340.1 2.91 382.5 2.91 382.5 1.09 338.1 1.09 338.1 64.64 382.95 64.64 382.95 62.83 340.1 62.83 340.1 33.59"/><polygon class="cls-1" points="421.71 62.28 394.21 1.09 392.03 1.09 420.9 65.1 422.44 65.1 451.31 1.09 449.22 1.09 421.71 62.28"/><polygon class="cls-1" points="466.11 33.59 504.6 33.59 504.6 31.78 466.11 31.78 466.11 2.91 508.51 2.91 508.51 1.09 464.11 1.09 464.11 64.64 508.96 64.64 508.96 62.83 466.11 62.83 466.11 33.59"/><polygon class="cls-1" points="526.12 1.09 524.12 1.09 524.12 64.64 565.16 64.64 565.16 62.83 526.12 62.83 526.12 1.09"/><path class="cls-1" d="M628.94,9.9a30.44,30.44,0,0,0-10-7.22,33.11,33.11,0,0,0-26.1,0,30.34,30.34,0,0,0-9.94,7.22,32,32,0,0,0-6.36,10.44,35,35,0,0,0-2.22,12.43V33a35,35,0,0,0,2.22,12.43,32,32,0,0,0,6.36,10.44,30.34,30.34,0,0,0,9.94,7.22,33.11,33.11,0,0,0,26.1,0,30.44,30.44,0,0,0,10-7.22,32.13,32.13,0,0,0,6.35-10.44A35,35,0,0,0,637.51,33v-.19a35,35,0,0,0-2.22-12.43A32.13,32.13,0,0,0,628.94,9.9Zm6.58,23.15a33.31,33.31,0,0,1-2.09,11.75,29.23,29.23,0,0,1-15.34,16.57,29.77,29.77,0,0,1-24.2,0,29.75,29.75,0,0,1-9.39-6.86,30.32,30.32,0,0,1-6-9.89,32.87,32.87,0,0,1-2.14-11.71v-.19A33.5,33.5,0,0,1,578.41,21a29.48,29.48,0,0,1,6-9.85,29.93,29.93,0,0,1,9.31-6.76A30,30,0,0,1,618,4.4a29.91,29.91,0,0,1,9.4,6.86,30.47,30.47,0,0,1,6,9.89,32.88,32.88,0,0,1,2.14,11.72Z"/><path class="cls-1" d="M693.89,6.13q-6.35-5-18.06-5H653.49V64.64h2v-25h20q11.53,0,18.16-5t6.63-14.29v-.18Q700.25,11.16,693.89,6.13Zm4.36,14.3q0,8.54-6.08,13t-16.71,4.45h-20V2.91h20.15q10.73,0,16.66,4.58t6,12.76Z"/></svg>