<svg id="图层_1" data-name="图层 1" xmlns="http://www.w3.org/2000/svg" viewBox="0 0 222.31 222.43"><title>moondevelop</title><path d="M222.31,0H121.21s-9.53,0-13.43,1.25A17.91,17.91,0,0,0,101,5.63L60.41,46.19,20.18,6a22.66,22.66,0,0,0-6.62-4.32C9.34-.19,0,0,0,0V222.26H121.21V135.54l80.92,81a22.14,22.14,0,0,0,6.59,4.33c4.22,1.81,13.59,1.59,13.59,1.59ZM63.25,202.11H20.18v-80.9h80.87v80.9H63.25M101.1,101H20.18V34.46L60.25,74.59l.16-.13.11.13L101.1,34Zm20.15-80.85h80.88v80.89H121.25Zm14.17,101.05h66.74l0,66.73Z"/></svg>